<?xml version="1.0" encoding="UTF-8"?><svg id="ddd_logo" xmlns="http://www.w3.org/2000/svg" viewBox="0 0 1623.09 1479.16"><defs><style>.cls-1{fill:#6a3906;}</style></defs><path class="cls-1" d="M969.71,256.91c-8.26,15.96-23.03,21.01-39.53,23.43-1.03,17.05-.47,35.45-11.32,49.7-13.58,15-30.82,57.52-54.95,36.95,18.27,30,29.95,61.95,26.39,97.45-7.66,46.99-22.81,92.87-39.32,137.5-3.85,9.86-1.59,20.13-1.11,30.21,6.04,44.93-3.33,89.4-11.25,133.5,2.31,14.05-1.03,27.36-4.27,40.83-3.05,21.63,12.95,36.99,2.25,60.14-14.69,32.95-26.81-1.21-34.26-17.61-3.68-12.25,8.32-23.02,.37-39.06-1.8-4.19-1-8.45,1.62-12.36,12.78-15.75,9.77-36.03,9.21-54.95-1.75-63.12-5.69-126.12-9.51-189.14,.27-22.6-.71-45.29-2.7-67.8-.49-5.06-4.35-9.88-7.07-14.58-3.66-5.79-8.42,3.51-12.13,5.61,2.65,6.26,8,12.66,8.63,19.58-2.61,13.28-12.66,.44-16.25-5.16-.48,.28-.96,.55-1.44,.83,1.6,10.75,19.9,25.58,14.78,34.12-6.79-1.55-9.65-9.07-17.87-7.69-11.18,.93-17.54-11.85-26.67-16.96-13.5,8.89-27.91,18.38-42.58,28.04,14.7,24.63,30.05,48.98,44.85,73.56,4.58,7.56,14.67,12.36,23.29,10.52,9.79-2.09,17.06,2.27,19.45,12.22,1.89,25.1-3.48,35.38,16.55,56.23,3.74,2.65,5.87,8.22,4.51,12.16-8.43,6.83-26.23-2.81-33.66-8.5-20.62-14.4-31.77-36.53-45.35-56.82-25.32-26.11-55.52-46.87-79.29-74.5-11.34-13.64-26.33-33.12-12.52-50.09,27.07-34.41,59.67-64.28,93.96-91.43,1.57-1.19,2.98-3.89,2.88-5.8-2.13-38.24-4.48-76.46-6.85-114.68-1.61-8.45-1.69-17.99-11.68-21.6-4.23-1.52-7.66-6.23-10.61-10.13-4.23-5.6-3.68-7.27,2.01-11.5-5.75-3.48-14.38-5.08-11.64-14.63,2.26-7.87,8.83-9.65,17.03-9.38-10.16-8.58-24.66-20.77-1.69-21.96-24.58-16.01-12.14-41.4,13.94-25.08,10.15,6.65,20.15,13.57,29.89,20.8,3.35,2.49,5.39,3.17,9.36,.75,7.45-5.09,17.34-10.27,18.81-19.96-6,11.78-21.53,15.01-33.75,7.49-6.31-3.27-1.52-13.92,5.01-9.27,.88,.51,2.12,.4,2.87,.53-.53-4.31-1.03-8.34-1.53-12.37,.35-.08,.71-.17,1.06-.25-20.8-16.36-4.48-16.05-2.89-28.94-1.96-4.14-4.37-8.1-6.87-11.95-17.61-2.2-21.42-19.67-5.21-27.41,5.22-2.25,12.58-.32,12.08,7.48,.43,.15,.86,.31,1.29,.46,.66-1.85,1.91-3.7,1.88-5.54-.24-9.5,5.8-17.04,14.95-19.19,11.81-11.4,27.75-5.43,42.36-9.38,8.96-1.16,9.99,8.31,15.43,12.63,4.26,2.14,6.48,5.15,7.33,9.9,1.35,7.54,6.87,9.15,12.64,4.05,3.9-3.45,3.13-6.59-1.21-8.66-.62,1.69-.97,4.63-1.91,4.83-5.25,1.06-9.13-1.53-5.76-7.02,4.37-5.22,11.05-4,14.96,2.14,4.5,5.65,13.66,11.59,5.76,19.03-4.26,5.51-15.78,5.37-17.1,12.31-.31,2.55-1.77,4.95-2.9,7.89,24.67,7.28,23.05,31.91-.28,39.85-3.28,1.55-3.86,3.76-.91,5.77,2.56,1.75,5.67,4.88,8.28-.54,2.5-3.39,7.93-.84,8.83,2.69,1.13,4.37-1.59,7.2-5.2,9.2-10.55,5.91-23.01-1.73-29.16-11.83-7.06,6.87,4.44,18.36,12,17.91,10.22-1.61,22.46,2.91,31.38-3.2,5-4.35,9.17-9.9,14.68-13.35,15.16-9.51,35.45-4.26,20.42,15.64,12.84,.43,7.3,9.78,3.09,16.99,6.85,3.85,6.79,7.17-.18,16.82,.95,4.78,1.72,8.66,2.48,12.47,5.28-4.22,5.18-8.29-.05-10.74,2.67-5.44,10.64-15.18,1.39-18.63,6.37-9.14,5.23-16.11-1.55-18.14,9.39-14.87-6.91-30.68-21.86-19.32,6.45-21.16,28.17-46.02,50.73-50,15.5-9.7,30.92-19.47,49.76-21.28,8.71-2.09,16.48,7.85,9.99,14.98-5.71,7.83-12.14,15.67-17.94,23.3,40.79-2.9,25.59,18,9.1,39.15,33.85-1.25-.79,30.46-8.73,41.67,6.85-1.41,17.6-4.67,18.69,5.47,.9,5.63-.26,10.72-4.78,14.47-7.51,6.62-16.17,12.01-23.04,19.29l.15-.16Zm-204.3-90.79c1.35-1.01,2.71-2.01,4.06-3.02-.52-.21-1.04-.42-1.57-.63,.26-1.98,.53-3.96,.82-6.16-2.83-4.58-6-9.71-9.18-14.84-14.92,17.87-3.39,12.28,5.97,24.74-5.78,4.15-5.59,6.68,.51,10.3,5.56,3.3,10.35,1.15,15.17-2.24-2.75-1.89-4.92,1.46-7.4,1.72-5.75,.51-8.43-2.81-8.38-9.87Zm2.7,38.46c-6.18,1.84-12.2,3.53-18.16,5.42-26.72,7.1-28.67,39.98-21.62,62.26,10.03,34.23,7.22,70.77,10.97,106.03,1.33,27.24,3.02,54.45,5.43,81.61,1.14,19.93-3.83,41.76,18.68,51.47,3.44-10.39,4.52,4.17,16.01,2.48-3.94-6.39-7.85-12.26-10.28-19.17,.28-14.95,12.46-4.7,17.24,3.32-.59-2.45-.58-3.66-1.13-4.5-6.65-11.45-16.55-22.15-22.31-33.76-8.53-31.38,1.41-64.13-1.18-95.91-1.74-21.39-4.59-42.64-4.64-64.21,.23-12.17-6.15-24.52-6.09-36.72,7.52-12.23,12.91-26.25,18.3-39.67,2.34-6.17,1.9-12.78-1.22-18.65Zm66.47-68.46l-1.39-.32c.07,2.35-.38,4.4-1.97,6.22-5.28-1.7-2.39-8.09-2.34-12.23,.08-.48,3.16-.41,4.83-.67,6.93-5.93,12.73-20.76-.36-24.7-4.04,3.23-7.24,9.83-13.2,10.23-.72-4.16,3.32-6.9,4-10.09-.18-5.79,2.08-5.68,6.78-2.51,3.23-5.64,3.5-12.08-3.58-14.24-1.51-.53-3.37-1.78-3.9-3.15-3.46-9.01-13.41-12.1-21.49-6.55-7.45,3.55-10.29-6.15-24.1,5.09-9.06,4.21-17.17,7.34-14.5,19.39,.47,2.36,.72,4.13-2.35,4.92-2.57,.67-3.81,3.03-1.64,4.87,8.95,7.81-13.81,5.78-3.31,17.63,1.51,1.95,2.77,4.1,4.21,6.24,5.15-5.55,10.83-12.62,12.84-.09,2.21,6.25,1.93,8.07-4.19,11.34,.56,.75,1.28,2.47,1.91,2.44,8-1.59,6.42,19.58,20.57,26.57,15.85,13.86,33.13-4.78,34.38-21.68,.13-1.28,.62-3.3,1.46-3.63,7.42-2.83,7.23-9,7.35-15.09Zm111.57-19.56c13.51,2.61,19.76,16.54,5.11,38.04,9.24,3.84,10.21,11.99,3.57,29.96,19.3,7.4,5.55,23.65-2.59,33.57,10.74,11.8,8.14,22.79-7.75,33.71,1.29,11.24-6.38,15.61-15.13,18.92,2.61,6.91,2.69,7.21,9.21,5.38,4.92-1.38,9.79-3.26,14.33-5.6,9.33-3.7,11.26-11.55,17.38-18.2,6.8-5.6,14-10.75,20.53-16.63,6.18-5.38,6.55-20.66-5.09-16.61-6.55,2.06-12.8,5.34-19.05,8.25-.77-.9-1.53-1.8-2.3-2.71,1.69-.74,3.88-1.04,4.98-2.3,9.4-10.75,18.79-21.51,27.67-32.68,4.81-6.76-.53-15.38-8.59-10.67-6.26,3.28-11.8,7.91-17.97,11.42-.35-.5-.7-.99-1.05-1.49,12.04-10.58,21.41-23.84,31.23-36.42,5.57-7.02-3.03-13.2-10.02-13.24-11.41-1.34-18.41,6.47-27.77,12.12,0-1.89-.14-2.33,.02-2.51,10.66-11.61,20.71-23.82,30.73-35.98,4.57-7.05,.67-10.34-6.66-11.57-14.66,.57-27.09,8.33-40.82,15.25Zm-56.13,47.13c15.65-.48,24.89,5.02,22.1,21.88,1.59,7.12,5.93,8.63,2.64,17.54-1.44,6.77,3.4,11.67-1.19,18.91-2.44,5.99,4.1,6.85-1.92,15.39-3.32,4.8,8.78,19.76,10.97,25.97,9.42-2.9,18.76-4.98,8.5-15.78,10.42-2.9,27.84-13.63,14.77-24.98-7.6-2.07-13.32,7.83-19.38,11.16-.36-.4-.72-.81-1.08-1.21,9.15-10.14,18.76-19.87,27.67-30.2,7.29-7.59-3.27-17.99-11.07-10.88-4.85,3.69-9.06,8.24-13.81,12.09l-1.3-1.33c8.34-8.9,15.82-18.71,22.66-28.77,2.36-3.65,2.45-8.62-1.59-11.84-10.06-6.27-20.41,11.82-28.71,16.11-.36-.39-.73-.78-1.09-1.17,11.11-14.16,27.48-24.88,32.66-42.94,3.47-11.63-11.98-12.41-19.55-9.56-19.92,6.63-30.34,23.21-41.29,39.62Zm-17.83,202.36l.41,2.21c6.21-.79,12.84-1.72,16.65-7.26,9.64-12.72,19.41-25.36,28.39-38.54,8.75-16.42,11.71-42.11,.16-57.93-11.36-19.53-22.97-39.03-35.11-58.11-7.8-11.15-22.7-11.61-35.01-9.48-1.38,8.06-2.07,15.44,5.61,20.91,8.21,7.34,11.9,17.87,18.05,27.29,9.53-5.66,14.17,14.83,19.32,20.24,7.05,13.67,23.46,25.26,15.36,41.97-5.24,13.25-11.9,25.68-20.65,36.92-2.18,2.8-2.77,4.64,.19,7.54,9.76,9.53-6.05,12.74-13.38,14.23Zm-61.62-4.25c8.1-3.01,14.35-5.28,20.54-7.68,1.17-.45,2.57-1.19,3.13-2.2,4.3-7.78,10.67-13.05,18.7-16,.28-4.95,.23-9.64,.92-14.21,.44-2.88-.41-3.87-2.99-4.49-24.48-5.9-48.94-5.56-73.05,1.43-16.87,4.89-17.19,6.25-13.79,23.52-.09,1.6,1.72,3.36,2.93,3.68,13.4,1.19,24.41,8.75,36.13,14.51,.57-3.05,.54-5.73,1.62-7.84,1.47-2.76,6.05-6.37,8.28-2.34,.2,4.38-.77,7.04-2.43,11.62Zm64.8-112.71c-.69,.02-1.39,.05-2.08,.07-2.58,7.9,1.89,16.35-4.34,23.11-5.8,19.03-9.85,41.36-11.37,60.87,8.67,3.28,15.83,5.99,23.53,8.91,8.74-11.1,16.18-24.37,21.28-38.94,1.87-5.34,1.37-10.24-1.99-15.12-8.65-12.76-16.91-25.79-25.03-38.89Zm-135.69,387.97c16.49,22.2,34.2,52.6,65.66,55.26,.26-.47,.52-.95,.78-1.42-13.72-14.85-25.53-30.73-21.83-52.34,1.74-10.78-2.28-23.32-15.56-20.26-6.98,.71-14.49-.96-20.42-4.95-2.68,7.36-5.27,14.48-8.63,23.72Zm79.7,132.33c-.66,11.65-4.92,21.42-10.76,30.76-4.87,10.74,7.26,19.16-2.04,40.44-1.93,9.59,8.55,21.6,11.91,30.78,4.01,8.51,10.88,1.26,12.86-4.54,5.32-12.03,5.41-24.28,.83-36.48-7.2-16.79,.44-33.56,2.29-50.48,2.42-12.17-6.35-8.53-15.1-10.48Zm-93.11-559.7c-.39,.52-.77,1.03-1.16,1.55-5.81-4.39-13.49-4.06-20.41-4.91-12.08,1.82,14.92,19.61,18.91,21.37,5.93-15.36,18.62-20.97,32.94-25.57-11.95-8.65-24.01-16.55-36.25-24.18-2.31-1.44-5.41-2.65-7.98-2.38-8.89,.34-12.43,5.62-9.64,14.01,4.54,9.32,16.26,13.15,23.6,20.1Zm64.24-28.16c-6.08,11.68-20.45,15.4-8.05,26.78,13.71,12.42,46.76,13.19,45.76-11.15-2.32-5.99-8.1-10.07-12.03-15.5-7.97,7.47-16.94,5.37-25.69-.13Zm110.63,44.02c7.67-8.67,10.18-18.73-4.84-13.86-.22-.44-.44-.89-.66-1.33,5.16-4.23,12.47-7.7,12.05-15.35-7.76-3.49-13.13,3.74-19.48,7.05-.35-.42-.7-.84-1.05-1.26,40.08-32.76,1.01-39.19-19.47-8.66,19.56,2.96,23.7,20.22,33.44,33.42Zm-135.99,123.94c.81,6.27,1.38,10.67,2,15.42,13.88-.37,25.56,4.8,36.38,12.47,1.25,.89,3.24,1.92,4.42,1.52,10.05-3.44,19.98-7.2,30.01-10.88-2.93-3.8-2.24-11.34-8.55-8.24-7.58,1.79-17.73,10.31-25.01,6.77-12.95-7.42-24.35-12.86-39.26-17.06Zm-46.64-99.13c-.12,.35-.24,.7-.36,1.06-3.74,.72-14.29-1.07-11.23,5.66,3.49,6.26,8.19,11.14,15.27,13.79-2.58-14.52-2.54-26.73,.08-41.38-8.04-1.83-21.97-3.98-23.58,6.72-.72,9.3,13.64,10.37,19.82,14.17Zm122.3,109.36c8.11-3.44,14.46-11.19,23.33-9.62-4.64,6.5-12.9,8.64-19.4,12.86,.26,.49,.52,.98,.78,1.47,6.67-3.71,13.91-6.34,21.08-8.88,1.32-.43,3.23,.98,4.87,1.55-3.59,4.01-8.95,4.28-13.81,5.74,.12,.42,.24,.84,.37,1.26,8.55-1.93,17.1-3.86,25.96-5.86-4.31-5.53-6.41-10.86-10.83-14.66-12.41-3.5-20.21-7.24-30.49,4.96,5.61-2.04,8.61-6.23,13.43-2.39-.95,.94-1.74,2.39-2.88,2.74-5.75,1.82-9.35,5.88-12.42,10.83Zm107.26-141.13c6.45-7.98,24.72-27.12,5.58-30.85,11.45,11.02-3.9,22.11-10.66,31,19.99,6.03,7.3,25.68-6.45,29.76,5.88,10.52-3.59,14.79-12.29,17.4,.17,.58,.35,1.17,.52,1.75,9.39,1.69,20.33-7.02,16.12-17.36,17.15-8.43,20.33-21.13,7.18-31.7Zm-4.18-99.09c20.41,8.82,4.12,27.31-4.26,38.25,14.61,.61,28.58-38.75,4.26-38.25Zm-159.87,187.68c.03,.6,.06,1.2,.09,1.81,6.98-.7,8.9-.61,9.6-8.67-.36,.06,.87,.22,1.51-.32,6.7-4.63,6.66-6.38,.33-11.4-9.72-2.17-25.96,1.57-32.78,8.79,7.63-2.54,15.39-5.37,23.31-7.62,11.21-1.79,14.79,6.07,2.6,9.86,2.3,6.6,1.92,7.19-4.66,7.54Zm63.09-147.39c14.65-6.15,8.57-25.46-7.48-26.32v5.32c14.42,.38,10.23,12.36,7.48,21Zm-97.23-57.41c-10.44-3.03-18.41,11.65-7.36,16.02,5.75,2.37,8.95,1.16,11.74-4.44-11.71-.26-12.8-.54-13.05-3.39-.27-3.06,3.9-7.43,8.67-8.19Zm200.65,84.53c4.01-7.71,7.42-15.31,5.24-24.14-.87-4.5-2.25-5.48-6.97-4.42,10.24,10.73,1.42,19.39-3.57,28.57h5.3Zm-104.52-75.32c6.27-1.34,18.09-5.53,12.45-13.27-5.38,3.2-9.78,5.81-14.33,8.51,.45,1.14,1.05,2.65,1.88,4.76Zm-17.13,52.44c6.13-1.01,16.97-4.09,10.08-11.17-8.12-2.15-8.77,5.75-10.08,11.17Zm5.36,3.23c-9.6,8.59,5.91,17.85,14.59,14.34-11.03-1.68-13.97-4.46-14.59-14.34Zm-79.82,15.43c6.98,4.84,15.25,4.6,19.95,0h-19.95Zm90.45-31.99c.52-.4,1.05-.8,1.57-1.2-2.4-2.47-3.52-7.17-7.77-4.87,.83,3.28,3.44,4.61,6.2,6.07Z"/><path class="cls-1" d="M750.15,1132.63c-18.08,21.38-53.41,76.83-83.98,73.67-9.71-3.31-21.53-10.82-19.39-22.71-10.06-4.4-2.31-23.41-2.49-31.81,.83-16.71,6.52-32.48,12.41-47.87,1.26-11.43,7.13-21.21,12.95-30.67,9.94-5.97,19.04-13.81,31.71-13.63,19.81-5.61,37.06,4.18,50.74,18.51,2.2-9.31,2.71-18.4,3.08-27.73-3.35-10.72,4.84-22.44-3.45-31.91,7.8-5.54,4.32-12.14,1.2-18.71,7.61-13.34,30.42-6.77,24.34,10.21-.72,2.93-.55,6.61,.61,9.35,2.12,4.99,.55,9.99,1.26,14.84,2.52,17.34-3.36,33.97-3.78,51.05-3.15,18.63-5.25,37.71-3.44,56.78,.6,4.6,1.78,9.18,.37,14.29-1.43,16.44,4.74,16.28,19.09,20.29-2.83,6.52-4.67,12.77-8.02,18.06-16.2,22.4-32.81-19.32-32.04-33.42-.39-9.41-.08-18.86-.08-28.28-.37-.1-.74-.2-1.1-.31Zm-6.33-31.27c-9.1-11.79-17.86-22.87-34.08-20.29-2.94,.4-6.52,2.55-8.61,1.5-5.13-3.18-13.03,6.42-15.89,9.86-3.81,5.81-9.43,10.86-8.83,18.85-.73,5.87-4.08,11.47-5.65,17.21-1.93,10.75-9.11,20.09-5.72,31.37,.69,2.54,.5,6.19-.89,8.27-2.86,4.28-.51,7.52,1.38,10.44,2.14,3.32,4.46-.4,6.78-.84,14.26-3.06,22.14-15.87,32.63-24.66,9.89-4.93,12.55-15.25,17.38-24.36,4.54-4.28,9.65-4.82,10.09-12.61,2.31-5.66,8.07-10.05,11.41-14.74Z"/><path class="cls-1" d="M47.43,1209.21c-3.79-1.39-7.06-2.59-10.97-4.03-.5-3.6,4.69-18.16-4.08-13.8-7.41,3.57-15.61,.06-17.51-7.38-.93-7.16,12.08-10.8,18.49-16.12,.68-8.76-1.46-22.01,.99-32.18,3.39-3.41-2.95-7.14-1.58-10.44,4.5-6.25,2.72-13.06,2.42-19.78,.01-7.27,.04-14.49-1.41-21.67-2.19-7.01,1.68-21.89-10.14-16.63-5.83,.85-15.37,4.75-19.24-1.51-.99-4.89-7.74-15.97-2.32-19,10.77-6.23,22.84-7.84,34.98-5.54,10.34-.79,20.44,1.06,30.38,3.34,4.63,1.06,8.88,3.46,13.87,1.82,.68-.22,2.08,.36,2.5,1,4.26,6.47,11.46,7.11,17.89,9.49,7.52,2.79,14.8,6.26,22.12,9.58,10.92,5.4,21.79,12.23,31.35,19.5,8.86-1.55,9.98,6.98,14.3,11.12,4.77,4.57,8.11,10.97,13.44,14.52,6.28,4.19,3.7,11.5,7.86,15.98,.41,.44,.26,1.4,.67,1.83,10.58,10.37-6.66,30.55-16.12,35.39-10.26,4.57-21.18,8.26-31.76,12.09-8.55,.63-17.36,1.48-25.9,3.04-13.03,1.74-25.91,5.14-39.14,4.18-.76,0-1.83,.35-2.22,.91-3.26,4.69-7.29,3.11-11.57,1.87-3.38-.98-6.21-.37-6.35,4.26-.26,8.37-7,12.78-10.96,18.13Zm12.3-143.75c-5.48,14.5,3.39,26.92,.59,41.63-2.21,9.02,1.28,18.84-2.56,27.93-.26,.61,.19,1.63,.52,2.36,1.44,3.12,1.7,5.94-1.21,8.53-.72,6.69,1.76,13.86,2.31,21.16,20.24-1.76,41.54-4.66,61.6-6.75,8.2-6.06,20-1.86,27.49-9.74,.2-.21,.7-.38,.91-.27,5.3,2.8,8.69-1.95,12.74-3.48,17.55-5.92,3.36-22.29-5.83-28.58-1.75-7.71-8.02-7.75-12.26-11.97-.9-6.65-8.55-4.78-12.1-7.82-3.35-6.89-11.1-7.57-16.13-11.88-6.74-5.78-17.18-2.59-23.03-10.09-12.29-.52-21.67-5.04-33.05-11.03Z"/><path class="cls-1" d="M1055.11,1209.13c-4.11-1.44-7.38-2.6-11.04-3.88-.49-3.52,4.52-18.11-3.84-13.98-7.35,3.53-15.05,.39-17.68-6.45-3.49-7.27,12.79-11.74,17.22-15.96,2.51-11.36-2.05-23.99,3.54-36.38-4.35-3.39-3.32-7.4-.87-12.21,2.55-16.57-.42-34.48-3.1-51.06-.59-3.31-2.42-4.19-6.21-2.92-5.09,1.7-10.62,2.33-16.02,2.72-7.91-1.47-7.26-12.8-9.67-18.95-.21-.92,1.18-2.74,2.27-3.36,10.75-6.26,22.82-7.85,34.95-5.56,10.33-.69,20.44,1.03,30.38,3.34,4.63,1.07,8.87,3.48,13.86,1.84,.68-.23,2.08,.33,2.53,.97,4.76,6.73,12.27,7.56,19.36,9.71,18.94,6.22,36.44,17.6,52.36,29.11,9-1.97,9.5,7.04,13.87,10.87,4.72,4.14,8.65,9.19,12.93,13.83,9.88,8.78,1.64,8.58,11.36,21.56,4.41,7.88-4.2,19.9-9.1,25.79-7.94,6.22-19.16,13.34-28.85,14.68-7.7-.04-12.78,6.98-21.19,4.94-5.64-1.37-12.33,1.74-18.58,2.67-8.83,1.31-17.67,2.61-26.54,3.61-4.21,.98-9.69-1.5-13.34,1.11-3.01,4.2-6.74,3.12-10.69,1.89-11.22-2.94-1.07,6.19-17.93,22.09Zm12.98-143.29c-1.36,2.85-3.72,5.49-3.15,7.1,1.38,12.15,4.71,23.75,2.8,36.15-1.83,8.27,1.47,17.12-2.2,25.36-.29,.66-.2,1.78,.17,2.41,2.52,4.15,1.07,7.5-.96,9.29,.74,7.69,1.36,14.17,2.04,21.25,14.92-4.56,31.81-.94,46.84-6.29,4.91-1.49,11.65,1.19,15.59-1.23,8.82-5.05,20.06-1.67,27.56-9.54,5.02,2.46,8.32-1.72,12.29-3.22,10.16-3.84,11.4-9.79,5.32-18.7-4-5.86-11.62-8.51-13.5-16.17-2.16-2.09-7.15-3.87-9.54-6.57-3.43-3.81-8.36-5.76-12.5-8.19-10.67-12.32-26.91-13.93-40.56-21.04-11-1.37-20.38-5.33-30.23-10.6Z"/><path class="cls-1" d="M453.84,1104.29c-9.05,14.05-22.13,26.05-27.72,41.94-3.22,8.94-5.67,5.23-9.26,9.57-1.07,4.64-4.49,7.25-7.66,10.4-8.54,9.05-17.15,18.43-24.01,28.85-5.59,9.4-15.56,9.32-22.38,.81-5.52-6.89-3.11-14.01-3.27-21.19-.03-1.49,.47-3.26-.16-4.41-3.55-6.5-1.18-12.62,.49-18.97,5.75-19.81-5.78-59.23,5.83-74.07,5.9-4.17,15.89,3.8,17.37,9.96,2.48,14.78,3.32,30.09,1.12,44.9-.65,3.58-2.84,6.69-.26,10.44,.46,.67-2.22,3.19-1.82,4.23,3.35,7.6-4.54,14.28-.77,21.21,.49,.17,.99,.33,1.48,.5,8.9-18.37,24.04-32.96,33.27-50.99,5.18-1.22,4.42-6.24,6.4-9.52,6.05-15.94,8.2-14.51,20.92-24.49,17.43-17.41,23.5-7.44,34.25,9.44-2.55,3.98,.59,8.47,1.56,13.39,1.79,9.08,1.65,18.54,3.45,27.61,1.56,13.31,7.91,23.87,15.24,34.42,3.25,4.98,7.25,4.57,11.68,.45,3.91-3.63,8.57-6.45,12.86-9.68,6.73-6.98,8.52-21.81,19.27-23.64,9.93-1.34,14.72,14.07,6.94,20.16-1.34,1.11-2.7,2.95-2.88,4.58-.62,5.58-5.07,7.86-8.31,11.44-9.47,11.9-21.68,22.76-37.58,23.44-17.15,1.02-24.25-17.54-30.48-30.32-3.45-12.91-7.06-25.16-9.45-38.03-1.82-7.16-1.3-14.89-4.13-21.78-.67-.21-1.33-.42-2-.63Z"/><path class="cls-1" d="M1548.23,1139.68c-2.04,1.78-4.32,3.77-7.66,6.68-.16,2.42-.66,6.41-6.24,6.38-3.8,5.1-8.56,10.85-13.13,15.58-13.45,12.02-25.03,28.61-43.8,31.52-14.71,1.26-24.25-15.48-25.76-28.37-4.75-28.43,8.02-57.35,2.69-85.44-3.96-17.79,27.24-18.2,23.8-1.17-3.35,12.57,1.06,26.07-3.2,38.67-2.68,11.24-.04,22.93,1.62,34.16-1.02,8.12-3.8,9.75,2.62,17.61,10.65-12.33,25.62-18.14,36.45-30.13,4.34-4.29,9.07-8.15,13.55-12.28,4.76-4.46,7.71-10.82,14.75-12.92,1.67-.5,2.63-3.44,3.89-5.27,4.98-7.22,9.6-14.52,12.09-23.16,1.5-5.21,4.67-9.94,7.2-14.84,1.2-2.31,8.42-2.63,11.27-.62,19.92,13.27-4.28,33.09-7,49.71-3.66,13.39-.94,27.11,.57,40.6,.54,5.04,8.98,11.94,15.57,12.83,10,2.05,18.39-5.95,28.19-5.84,6.27-.02,9.49,6.24,5.89,11.41-6.89,10.94-20.38,13.31-32.06,15.9-13.3,2.36-23.15-4.9-31.28-14.1-2.93-3.31-3.7-8.33-6.85-12.25-2.5-3.12-1.75-8.93-2.23-13.56-.68-6.8-1.12-14.42-.95-21.09Z"/><path class="cls-1" d="M1374.79,1215.61c-7.57-1.58-16.18-4.17-24.09-5.39-18.78-3.76-27.91-27.88-26.7-44.97,.61-10.12,3.54-20.09,5.36-30.13,1.33-6.96-2.05-13.92,3.59-19.89,1.63-6.12-.68-13.46-.59-20.7,9.49,5.07,10.44,4.63,14.31-3.85,2.46-5.39,4.94-10.83,8.12-15.79,7.62-6.46,16.59-13.35,25.29-18.34,9.76-4.67,21.22,.22,29.51,8.51,8.91,8.91,6.81,19.59,6.94,29.92,.04,2.97-2.71,6.23-4.73,8.94-5.71,7.68-8.53,17.63-18.72,21.79-13.52,6.15-25.63,15.92-41.51,13.47-9.82,26.28-14.31,54.2,24.14,49.81,2.95-.34,6.69-1.63,8.32-3.81,2.68-3.59,6.56-4.09,9.81-6.12,5.31-3.32,10.3-7.36,14.75-11.77,2.76-2.74,9.92-6.2,12.87-4.67,14.07,10.59-2.9,24.16-9.31,33.87-4.81,2.12-9.32,5.63-13.75,8.67-7.07,4.93-15.96,7.02-23.62,10.44Zm6.84-110.38c6.24-12.28,7.92-4.8,14.11-19.87,.77-1.17-1.81-6.17-2.02-6.11-18.38,1.98-26.08,18.85-34.29,34.27,5.53-2.21,10.86-3.34,14.84-6.29,2.65-1.96,4.39-3.52,7.36-1.99Z"/><path class="cls-1" d="M826.24,1094.52c9.32,5.12,10.41,4.63,14.27-3.82,2.46-5.39,4.95-10.83,8.14-15.79,7.61-6.48,16.57-13.35,25.26-18.35,9.7-4.66,21.33,.23,29.53,8.51,8.82,8.91,7.46,19.64,6.75,29.88-1.25,7.13-9.01,13.8-11.62,21.15-5.2,7.22-14.21,11.29-21.56,16.03-5.74,2.84-12.38,4.42-18.64,5.97-4.15,2-8.27,3.45-12.73-.55-1.67,9.5-8.28,17.07-5.46,26.74-3.29,10.18-1.11,19.15,9.89,23.07,8.79,2.81,20.72,4.08,27.81-2.14,2.67-3.62,6.56-4.09,9.8-6.12,5.31-3.33,10.31-7.36,14.77-11.77,2.74-2.71,9.93-6.21,12.87-4.7,14.13,10.7-2.96,24.08-9.32,33.88-4.8,2.15-9.31,5.64-13.73,8.68-6.97,4.92-15.99,7.04-23.43,10.37-7.31-1.49-15.33-3.36-22.85-4.98-10.22-1.38-15.96-8.21-20.6-16.55-.99-1.77-3.46-3.04-3.78-4.81-1.59-8.94-3.87-18-3.65-26.95,.22-8.75,3.3-17.41,4.85-26.15,.96-5.89-.42-13.52,2.77-18.64,4.53-6.82-.18-14.51,.67-22.93Zm26.84,18.33c5.12-.46,7.21-1.83,10.84-4.44,3.8-1.64,7.74-2.96,12.63-4.78,1.02-1.43,2.29-4.87,4.74-6.32,4.76-2.45,14.91-19.28,3.96-18.25-17.02,2.6-23.41,20.82-32.16,33.8Z"/><path class="cls-1" d="M265.47,1067.13c9.68,4.97,13.77-1.51,18.36,.02,4.62,5.42,11.58,5.93,17.49,8.64,30.25,28.19,33.83,61.27,10.74,95.71-2.7,3.79-6.59,6.75-9.14,10.61-5.7,8.64-15.61,11.69-23.04,18.01-2.7,2.29-7.05,2.58-10.55,4.01-9.06,4.37-19.26,9.18-29.29,5.73-12.05,2.55-19.05-8.44-24.13-16.29,2.24-4.72-1.51-8.2-2.18-12.26-.81-4.92-.49-10.05-.46-15.08,.07-10.62,2.39-20.58,8.62-29.46,.83-1.18,.45-3.18,.75-4.78,1.99-13.99,3.66-27.8,14.69-37.91,2.34-2.87,4.81-5.27,4.64-9.48-.05-1.26,2-3.31,3.49-3.8,9.46-3.71,7.86-11.12,20.01-13.68Zm-4.57,119.17c.13,.3,.26,.6,.39,.9,8.65-2.86,40.15-24.41,38.22-34.15,9.13-6.56,2.48-13.82,7.64-21.03-2.07-6.42-2.25-13.7-4.91-19.93-7.7-8.97-13.56-24.81-27.26-23.64-2.7-.04-5.52,5.81-8.17,9.09-3.47,8.93-13.45,8.41-14.29,19.88-6.27,10.01-11.45,20.81-14.69,32.22-1.85,24.44-14.41,48.24,23.07,36.67Z"/><path class="cls-1" d="M1245.64,1203.75c-35.31-18.1-11.4-65.66-13.23-96.17-.8-11.08,2.31-21.96,.11-32.98-1.17-5.84,1.47-8.2,7.47-8.48,6.34-.49,16.43-4.06,17.33,5.19,.58,11.69-.77,23.59,.82,35.26-3.43,12.98-5.95,26.14-7.88,39.43-10.67,51.17,20.91,19.04,42.55,5.65,10.99-6.9,21.32-4.74,16.16,9.83-15.72,20.27-39.14,33.99-63.33,42.27Z"/><path class="cls-1" d="M726.2,176.02c-25.33-15.26-48.13,3.18-22.76,25.41-19.02,5.21-9.32,13.05,1,21.75-1.53,.75-1.93,1.09-2.34,1.12-9.85,.54-14.43,8.61-9.23,17.1,2.25,3.68,4.24,6.72,2.85,11.33-.91,7.38,16.87,17.02,22.33,21.65-10.42,1.58-20.38,.5-30.32-3.81,2.81,1.88,5.72,3.55,8.76,5.01l-.22,1.84c-13.22,2.14-26.6-.64-39.22-4.29-9.37-3.07-11-8.55-7.44-16.62-12.45-9.34-43.96-24.68-17.19-37.76-17.73-14.33-42.23-35.05-2.33-38.24-7.7-9.75-18.47-18.91-22.68-31.01-4.03-15.47,14.09-14.86,23.97-12.72-4.81-6.5-10.04-13.31-14.98-20.31-2.27-3.22-3.56-6.95-1.06-10.72,11.03-13.73,49.96,8.5,56.45,21.13-24.93-6.57-23.87,21.84-5.9,30.72-4.24-8.3-15.28-15.72-9.94-24.95,2.93-3.91,7.38-5.19,11.64-3.65,24.96,7.29,47.17,23.25,58.61,47.02Zm-62.51,9.98c-5.56-6.23-15.47-13.12-9.05-22.42-9.91,5.7,1.11,19.93,8.63,22.89-7.09,6.97-15.07,.55-13.4,16.83,2.57-12.74,5.56-14,23.75-9.19-3.86-3.15-6.89-5.63-9.92-8.11Zm25.06,89.98c-5.74-9.62-17.29-11.04-24.37-19.71-1.35-1.21-2.52-4.34-1.89-5.74,2.94-6.66-4.56-9.4-6.72-14.67-4.66-6.74-5.11-10.13,.25-16.73-9.21-7.64-14.62-27.93-.02-31.98-6.27-12.54-14.5-23.94,3.57-29.05-11.35-16.42-16.97-26.76,4.95-36.42-46.79-35.55-69.19-12.14-16.92,22.42-.24,.45-.48,.89-.71,1.34-61.67-23.89-35.83,20.09-4.08,39.8l-.65,1.34c-9.01-3.18-18.49-5.37-27.16,0-4.89,2.82-5.69,6.41-2.03,10.68,8.07,8.11,15.84,18.95,28.2,20.03,1.04,.02,2.05,1.63,3.07,2.5-.15,.5-.3,1-.45,1.51-8.29-4.32-24.84,5.04-17.38,13.98,7.55,8.62,16.17,15.74,27.91,18.03,1.27,.25,2.28,1.8,4.36,3.54-11.38-.21-9.77,9.93-2.59,13.12,10.25,4.79,21.2,5.95,32.68,6Zm-13.94-49.63l-.95,1.19c-5.36-2.15-17.96-1.75-12.27,6.73,6.38,4.99,12.73,10.24,19.79,14.25-4.82,.83-7.99,1.14-12.14,3.5,6.41,9.66,18.91,8.53,28.51,13.99-2.72,1-4.14,1.53-5.56,2.05-.02,.44-.04,.88-.05,1.32,5.04,1.14,10.07,2.28,15.11,3.42,.12-.42,.23-.83,.35-1.25-7.21-5.86-16.84-11.84-14.08-23.02-5.89-11.53-9.47-19.32,3.93-26.7-7.19-8.5-12.91-16.43,1.06-21.58-20.07-18.19-2.28-40.44,21.65-30.17-9.34-12.5-18.92-23.07-31.57-30.14-6.76-2.65-25.76-14.64-30.39-5.61-2.01,15.14,16.94,26.65,26.58,35.68-8.69-2.13-22.45-12.21-28.75-3.07-2.45,4.92,.85,8.38,3.91,11.36,7.84,7.34,15.62,14.85,24.27,21.24-.46,.62-.92,1.24-1.38,1.86-9.25-.85-23.59-15.94-29.27-2.64-3.54,13.51,14.75,18.38,21.24,27.59Zm-17.56,6.99c-.56-7.41,3.92-9.25,9.52-10.48-1.86-1.53-3.22-2.65-4.05-3.33-4.02,3.47-12.67,4.88-5.48,13.81Zm30.34,34.04c.18-.55,.37-1.11,.55-1.66-4.81-1.74-9.63-3.49-14.44-5.23-.17,.47-.34,.93-.51,1.4,4.8,1.83,9.6,3.66,14.39,5.5Z"/><path class="cls-1" d="M969.56,257.07c12.67-5.1,23.36-12.63,29.54-25.22,4.94-10.2,1.55-20.42-11.5-18.52,6.54-8.66,30.93-39.19,7.38-40.57,3.34-6.37,8.42-10.9,12.21-16.88,10.94-15.15-5.46-26.95-20.41-21.58-.2-.37-.4-.74-.61-1.12,7.79-10.26,26.04-26.85,9.55-37.45,9.41-5.39,20.98-7.11,31.32-10.54,3.65-.96,7.93-.56,10.18,3.44,4.7,8.38-13.9,22.8-18.58,30.71,11.78-2.68,22.83,6.79,17.38,18.52-3.78,8.21-9.34,15.6-14.12,23.36,.57,.1,1.93,.35,2.08,.38,10.42-12.3,28.36-42.04,1.25-46.47,7.32-8.71,22.84-21.78,8.19-31.59,9.67-6.4,18.97-12.55,28.77-19.03,5.4,10.12,1.16,17.55-4.77,25.08,19.76-.74,1.67,17.07-3.06,24.34,20.22-2.78,5.98,16.62,.5,25.14,6.8,5.26,.13,9.81-1.71,13.77,15.37,4.76,3.73,16.67-3.66,22.96l1.65,.33c0,3.07,1.23,6.99-.2,9.08-8.34,12.21-17.3,23.99-26.08,35.9-.35,.47-1.03,.7-3.08,2.04,3.06-9.9,8.38-18.46,2.26-27.4-7.63-2.77,19.96-15.89,8.23-28.33,.89,11.64-8.06,18.34-14.48,26.94,2.23,.5,4.25,.95,6.26,1.4,5.27,29.27-24.33,56.76-50.63,63.54-2.5,.82-4.36,1.31-3.86-2.22Zm16.92-5.28c31.48-12.98,52.98-76.81,18.16-44.8-.37-.31-.73-.62-1.1-.92,7.89-11.1,20.02-19.26,25.35-32.2,2.03-5.65-3.73-13.04-9.82-8.62-3.33,2.04-6.12,4.93-9.79,6.39-.28-.39-.56-.77-.84-1.16,9.98-9.86,17.69-21.77,25.18-33.55,2.79-4.66,.97-10.05-2.89-13.06-8.18-7.32-14.96,2.93-22.99,4.39-.23-.43-.45-.87-.68-1.3,22.51-26.46,53.05-50.82-6.47-32.39,9.35,15.54-.17,25.27-7.97,35.59,29.03,1.39,22.41,24.38,7.2,39.75,17.43,9.96,1.13,29.32-6.37,40.44,22.38,8.42,3.85,30.69-6.98,41.45Zm51.85-168.71c9.37,13.11-1.39,20.84-6.92,29.98,19.42,9.91,8.82,34.57-2.9,46.37,16.38,10.12,6.49,23.13-1.3,34.22,.9,6.27,1.76,12.28,2.73,19.03,3.88-7.67,20.41-26.29,19.16-33.06-4.6-.64-7.62,2.4-11.06,4.88-.36-.48-.72-.96-1.08-1.44,6.67-6.87,15.52-11.68,20.8-19.92,3.45-15.08-14.13,1.24-18.78,3.58-.31-.4-.61-.79-.92-1.19,5.04-7.94,15.13-12.53,17-22.58-.37-.31-.74-.61-1.11-.92-3.27,1.86-6.55,3.72-9.82,5.58-.25-.43-.51-.86-.76-1.29,13.76-12.64,34.97-44.21-1.08-22.63-.65-.76-1.29-1.51-1.94-2.27,9.63-5,14.95-15.79,22.37-23.51,.84-1.04,1.24-3.89,.67-4.31-5.74-4.2-15.86,7.1-21.01,10.16-.37-.41-.74-.81-1.11-1.22,7.4-10.98,25.04-18.77,20.01-34.37-7.98,5.19-15.47,10.05-22.93,14.9Z"/><path class="cls-1" d="M638.41,257.11c3.28,5.21-6.08,2.59-8.76,2.9-.16,.42-.32,.83-.49,1.25l19.48,9.5c-.1,.38-.2,.76-.29,1.14-10.7-1.66-20.83-6.64-31.31-9.53-3.52-1.14-5.25-2.9-2.7-6.79-12.67-7.88-41.55-18.68-33.57-37.76-13.32-10.94-24.04-24.32-26.64-42.09-10.1-7.96-12.92-23.57-1.65-29.88-3.63-8.03-13.68-18.46-2.4-25.06-3.69-6.71-11.92-17.98-3.26-23.62-5.29-11.17-23.55-35.87,2.12-31.99,9.6,5.43,18.57,11.98,27.78,18.11-.19,.56-.37,1.12-.56,1.68-31.08-1.67-9.92,31.82,3.14,41.87-6.91,3.28-15.65,3.49-14.02,14.29,1.1,7.29,1.85,14.28,10.56,17.74-7.16,3.91-11.78,1.01-10.6,11.54,1.23,10.89,6.64,18.2,19.05,25.7-2.84,9.72,.68,15.72,13.18,22.46-6.91,8.77-7,11.23,2.85,17.36,12.39,7.71,25.49,14.28,38.29,21.34l-.18-.16Zm-67.68-174.67c-7.84-3.87-23.73-21.68-30.56-14.25-5.28,12.6,7.08,23.96,15.93,31.64-3.08,1.11-6.67-.66-8.58,.72-5.36,7.25,5.23,17.56,10.48,22.61-20.63-.77-5.4,17.02,.66,25.11-8.52,.69-11.53,3.93-10.48,11.9,.88,9.54,7.47,13.3,15.27,17.86-2.81,.43-4.28,.65-7,1.06,6.34,17.37,16.1,31.08,32.43,40.59-18.6,2.06,2.74,18.42,8.75,23.36,7.39,5.51,15.59,7.98,22.98,13.91-2.17,.86-3.31,1.31-5.35,2.13,4.3,1.45,7.53,2.55,11.37,3.84-4.37-6.17,1.48-5.03,3.62-5.93-10.93-6.57-21.84-12.61-32.2-19.5-8.98-5.97-9.33-8.41-5.79-18.01-6.36-5.74-13.14-11.13-11.6-21.2,.11-.71-1.23-1.68-1.97-2.46-11.29-9.62-24.4-26.42-10.25-38.41-5.42-4.88-4.86-11.71-5.81-18.04-1.28-8.57,5.42-10.73,10.05-12.73-7.36-13.69-29.24-39.1-1.94-44.18Z"/><path class="cls-1" d="M638.59,257.27c-10.66-6.95-21.57-13.75-31.35-21.89-6.37-5.52-6.32-9.32-1.18-15.48-5.76-6.79-18.29-9.52-12.96-22.86-7.41-4.1-16.76-7.99-18.01-17.54-1.04-7.37,2.39-11.18,12.62-13.7-17.3-12.75-26.63-36.16,3.68-36.91-8.73-6.48-16.77-12.99-20.77-23.36-4.33-10.87,.83-19.34,12.32-17.92,12.65,2.22,24.97,5.66,36.88,11.1-6.2,3.29-12.54,3.73-9.98,12.33,3.38,8.16,8.44,14.73,15.13,20.96-38.61,4.64-18.34,23.31-3.22,42.35-40.15,5.81-10.77,31.41,6.87,44.62-26.73,7.18,4.42,28.09,13.83,37.85-2.04,.14-3.03,.21-4.03,.28,0,0,.18,.16,.18,.16Zm-41.45-61.85c-9.28,12.53,7.68,19.35,17.01,25.51-23.09,3.49,3.39,18.56,11.21,25.51-6.51-10.03-16.72-21.18-2.92-28.71-17.04-12.08-39.26-37.72-5.99-45.25-13.65-16.91-29.62-36.29,2.78-42.37-14.62-16.92-15.66-21.6-6.93-32.2-16.82-7.36-55.45-17.29-34.97,14.42,6.3,9.82,16.63,13.95,25.67,20.7-11.65-.63-32.99-4.4-28.29,13.52,3.86,11.56,16.94,16.27,25.53,23.94-.17,.43-.34,.85-.5,1.28-3.83-.8-7.64-1.72-11.5-2.38-11.86-2.46-13.52,11.6-6.25,17.42,4.42,3.32,9.65,5.58,15.14,8.61Z"/><path class="cls-1" d="M1259.57,970.68c7.69,3.74,27.13,10.33,15.76,21.52-6.72,6.48-13.34,13.24-20.09,19.62-9.57,2.36-15.22,10.49-23.32,15.54-12.25-4.71,3.07-23.58,6.66-30.84,9.31-7.39,14.16-15.61,20.99-25.84Z"/><path class="cls-1" d="M791.21,54.21c-13.92-2.91-35.91-2.72-51.6-9.77-3.99-1.86-7.98-4.28-7.89-9.35,.82-11.03,21.17-12.62,29.7-15.24,29.59-4.27,60.89-5.03,89.1,6.32,9.69,2.99,10.23,15.32,.14,18.01-20.45,7.79-35.69,8.3-59.45,10.03Zm.16-4.75c14.34-1.32,25.17-1.8,35.82-3.47,17.94-3.37,42.34-11.06,9.18-19.74-44.85-14.02-171.06,9.54-45,23.2Z"/><path class="cls-1" d="M650.77,1306.81c3.91,2.79,7.53,5.37,12.22,8.71v-11.8c1.05-.09,3-.27,5.83-.52-3.08,21.09-4.02,12.58,15.48,24.25-2.05,9.77-14.53-3.67-19.69-5.54-10.69,10.71-17.87,12.51-24.22,6.24-6.64-6.57-5.89-12.31,3.01-21.42-13.42-10.17,3.35-25.22,13.4-15.66,5.51,6.08-2.03,11-6.01,15.74Zm9.99,12.93c-5.07-3.7-9.82-7.16-14.62-10.66-8.31,6.67-5.75,15.91,3.7,18.69,5.15,.99,7.97-3.63,10.92-8.03Zm-12.93-15.75c6.38-4.88,7.73-7.92,4.85-10.8-5.75-5.57-15.68,3.83-4.85,10.8Z"/><path class="cls-1" d="M1114.35,1294.35c-7.95,12.49-13.01,24.65-20.54,36.74-5.81-5.32-6.13-13.67-10.69-19.8-7.78,5.33-9.14,15.92-16.58,20.48-5.4-12.53-10.18-24-15.31-35.31-2.3-5.07-2.39-5.4,3.38-7.23,4.45,11.35,8.91,22.71,13.91,35.46,5.99-8.7,8.91-16.69,15.45-23.17,5.06,6.4,6.06,13.68,10.04,22.23,5.66-11.33,10.59-21.22,15.82-31.69,1.05,.53,2.56,1.29,4.51,2.29Z"/><path class="cls-1" d="M855.32,1299.75c-1.91,10.43-3.82,20.87-5.82,31.77-1.32-.17-2.87-.36-4.45-.56,2.84-13.54,5.57-26.6,8.59-41.02,3.64-3.11,14.29,21.1,18.25,25.46,4.95-8.1,9.27-15.32,13.77-22.43,1.7-3.2,5.29-3.99,6.82-.35,2.2,11.24,3.98,22.57,6.2,33.81,.71,3.57-.06,5.08-4.18,4.84-2.02-11.28-4.06-22.65-6.09-34.02l-1.26-.49c-4.96,8.43-9.27,17.28-14.67,25.43-7.06-5.89-10.41-15.42-15.88-22.79-.43,.12-.85,.24-1.28,.35Z"/><path class="cls-1" d="M516.89,1310.61v20.67c-1.84-.18-3.77-.37-5.7-.56,1.18-13.7,2.8-26.8-.41-40.38,16.96-9.14,32.97,9.23,11.25,17.88,11.95,7.47,23.28,14.56,34.66,21.68-2.29,4.05-3.36,4.46-7.7,1.51-11-7.2-20-14.93-32.1-20.8Zm-.2-4.33c17.92-2.23,9.7-20.92,1.31-12.22-.98,3.86-.94,7.98-1.31,12.22Z"/><path class="cls-1" d="M825.82,1329.39c-8.52-9.87-16.11-18.67-23.71-27.47-.62,.21-1.23,.42-1.85,.64,0,7.72-.28,15.46,.1,23.16,.25,5.04-1.99,6.06-5.38,5.61,.69-9.05,1.21-17.88,2.08-26.67,.5-5.07,.28-9.45-6.75-11.08,2.23-1.95,3.74-3.28,5.57-4.88,9.27,10.22,18.27,20.16,27.27,30.09,.48-.12,.96-.24,1.44-.36,0-6.96,.23-13.92-.08-20.86-.23-5.26-.21-5.56,5.83-4.93-1.06,11.95,.67,25.83-4.53,36.75Z"/><path class="cls-1" d="M957.67,1328.63c-7.85,11.1-8.35-13.17-27.98-8.64-19.21-3.62-13.35,16.01-22.18,9.92,4.63-7.46,9.04-14.85,13.75-22.03,5.9-8.09-3.72-12.11-8.87-17.22,4.07-3.04,6.2-3.87,9.28,.23,10.38,13.81,21.82,26.72,36,37.73Zm-20.38-12.28c-3.77-3.97-7.08-7.46-10.63-11.19-2.08,3.68-3.99,7.08-6.31,11.19h16.94Z"/><path class="cls-1" d="M559.7,1329.92c4.76-7.74,9.28-15.26,13.99-22.65,5.43-7.66-4.52-11.63-8.76-17.12,3.81-2.51,5.93-3.19,8.99,.88,10.38,13.79,21.81,26.7,35.56,37.33-7.14,11.78-7.87-13.01-28.36-8.35-18.73-3.1-12.13,15.26-21.43,9.92Zm12.74-13.64h17.14c-3.9-3.94-7.28-7.35-10.83-10.93-1.92,3.33-3.8,6.58-6.31,10.93Z"/><path class="cls-1" d="M451.42,1329.83c4.05-6.32,8.34-12.4,12-18.83,6.15-10.83,5.36-8.63-2.26-16.58-1.25-1.3-2.81-2.31-4.25-3.47,4.38-4.04,5.8-3.78,8.63-.12,10.58,13.68,21.85,26.72,35.69,37.38-1.94,4.17-4.39,4.87-6.82,1.17-5.11-7.8-11.93-10.94-21.05-9.38-7.45-.98-13.31,.47-15.84,8.17-1.22,3.26-3.16,3.93-6.1,1.67Zm30.85-13.44c-4.45-4.41-7.82-7.75-11.48-11.38-2.09,3.71-4.05,7.2-6.4,11.38h17.88Z"/><path class="cls-1" d="M441.53,1290.02c2.24,2.04,3.52,3.2,4.16,3.78-6.62,6.09-12.94,11.91-19.48,17.93,7.02,5.61,13.84,11.08,20.69,16.56-2.61,3.46-4.52,3.73-8.03,.44-6.48-5.79-10.41-11.08-18.4-15.62-.52,7.45,1.86,12.8-2.4,18.23-.68-1.39-1.9-2.75-1.96-4.17-.48-11.11-.82-22.22-.98-33.34,.05-1.95,2.26-5.63,4.61-4.21,4.19,6.46,.3,13.78,1.74,21.23,6.59-6.86,13.19-13.72,20.04-20.84Z"/><path class="cls-1" d="M400.79,1309.54c.49,29.51-38.77,23.96-30.87-4.21,4.48-18.68,32.1-18.3,30.87,4.21Zm-4.11,1.91c-.93-6.77-1.9-14.88-10.12-15.56-4.89-.39-8.45,1.86-10.49,6.13-10.04,19.53,17.48,35.81,20.6,9.42Z"/><path class="cls-1" d="M743.87,1337.37c-.99-.54-1.24-.6-1.26-.7-1.23-7.01-5.7-7.27-11.72-6.62-26.93-1.24-16.52-46.25,11.91-39.67,2.34,.5,5.06,3.02,2.14,5.03-5.9,.35-6.48-5.16-13.56-.57-10.51,5.27-18.23,30.9-1.07,31.81,8.25,.8,8.23-5.22,12.17-10.15,3.08,4.22,2.94,15.84,1.38,20.86Z"/><path class="cls-1" d="M1142.06,1290.86c-11.42,2.79-12.9,6.95-15.46,18.11h15.13c-4.14,5.6-9.81,2.09-14.01,4.4-.74,11.1,4.78,16.71,16.69,16.86-31.94,16.28-26.88-53.16-2.35-39.37Z"/><path class="cls-1" d="M780.03,1291.04c-11.88,2.25-12.75,6.9-15.77,17.99h15.1c-3.93,5.48-9.35,2.15-13.3,4.1-2.07,9.41,1.51,13.53,15.24,17.46-3.76,4.07-13.97,2.21-18.07-3.28-8.22-10.57-1.35-47.33,16.8-36.27Z"/><path class="cls-1" d="M1176.44,1291.55c-12.67,3.09-14.84,5.64-14.8,17.35h13.96c-4.12,5.57-9.68,2.19-13.59,4.36-1.9,9.35,1.5,13.26,15.3,17.37-3.98,4.18-14.41,2.05-18.38-3.75-7.74-10.82-.64-47.67,17.51-35.32Z"/><path class="cls-1" d="M1200.39,1297.06c0,7.82-.06,16.28,.02,24.73,.05,5.85,4.53,6.01,9,6.15-.62,4.29-3.7,4.36-6.33,4.02-7.9-.57-8.24-8.63-7.14-14.82,.07-6.79,.02-13.57,.02-21.13-4.59-.43-9.23,1.61-12.38-2.2,2.08-4.81,24.54-1.56,32.07-2.45-3.88,6.13-9.6,2.73-15.26,5.69Z"/><path class="cls-1" d="M828.25,1412.55c14.64-6.32,34.83-3.57,35.32,14.91h15.03c.02,.39,.03,.78,.05,1.18-5.54,1.56-15-2.55-16.65,4.95-2.77,10.4-13.35,17.91-22.27,16.8,11.48-6.11,24.09-14.88,17.36-29.52-5.16-10.97-17.93-8.96-28.84-8.33Z"/><path class="cls-1" d="M1046.23,1290.28c-21.01,2.58-9.75,14.12-5.71,27.07,3.21,8.04-2.16,17-11.35,14.56-1.14-.13-2.04-2.43-3.14-3.86,3.54-1.72,6.61-.82,10.31-1.43-.12-7.21-2.54-13.51-6.01-19.73-5.24-9.17,5.87-26.59,15.9-16.61Z"/><path class="cls-1" d="M773.29,1450.61c-11.39-.33-20.08-6.75-22.9-17.35-1.87-7.3-11.13-2.41-16.48-5.66h15.01c-.15-18.34,20.58-20.71,34.66-15.79-10.7,1.09-25.6-1.7-28.98,11.29-3.73,15.16,6.97,20.98,18.69,27.51Z"/><path class="cls-1" d="M1242.69,1290.51c-20.1,1.73-10.01,13.83-5.8,25.93,4.9,9.1-6.98,24.62-13.68,12.04,3.91-.82,8.87-.71,9.44-2.24,1.62-6.69-3.41-14.01-6.05-20.11-4.28-8.77,6.36-25.93,16.09-15.62Z"/><path class="cls-1" d="M798.51,1447.23c-.02-.62-.03-1.25-.05-1.87l-.14,.16c6.3-2.76,6.99-4.23,4.01-10.72-4.5-8.24-8.62-34.53,7.44-29.36-.16,.54-.33,1.08-.49,1.61-1.51-.33-3.02-.65-4.45-.97-6.34,8.2-6.21,17.63,.7,30.69,1.72-2.83,3.26-5.36,4.8-7.89,.44,.17,.89,.34,1.33,.51-1.16,3.87-2.31,7.73-3.57,11.95,5.43,5.51,5.33,6.23-2.14,13.14-2.51-2.46-4.99-4.89-7.47-7.31,0,0,.04,.06,.04,.06Z"/><path class="cls-1" d="M968.83,1332.47c-2.71-11.63,.26-24.08-2.12-35.61-2.17-3.9,.85-5.14,3.24-6.33,.58-.29,3.25,1.59,3.24,2.45-.78,13.15,.87,26.79-2.32,39.61-.68-.04-1.35-.08-2.03-.12Z"/><path class="cls-1" d="M927.27,1418.56c-3.12,3.44-6.23,6.88-10.4,11.48,12.06-.55,21.9-2.22,32.94-5.79-.48,7.17-24.85,11.35-36.09,5.61,4.35-4.14,8.55-8.13,12.76-12.13,.27,.27,.53,.55,.8,.82Z"/><path class="cls-1" d="M1012.04,1407.52c1.6,15.76-10.6,27.93-29.88,26.74,15.69-2.44,25.63-11.38,29.88-26.74Z"/><path class="cls-1" d="M630.49,1434.36c-20.19,.67-31.14-10.99-30.15-26.75,4.46,15.27,14.38,24.34,30.15,26.75Z"/><path class="cls-1" d="M971.87,1434.36c-8.79,2.21-18.58-5.5-19.12-14.43,1.61-11.68,18.39-6.38,8.54,3.3-.46-.32-.91-.63-1.37-.95,.59-1.63,1.27-3.98,.66-5.53-1.72-1.53-4.93,.41-4.98,2.74-.51,7.96,9.29,12.61,16.42,13.76l-.15,1.1Z"/><path class="cls-1" d="M662.71,1423.2c10.39,5.91,21.01,6.95,32.89,6.17-2.11-2.4-3.58-4.08-5.05-5.76l1.11-1.08c2.16,2.51,4.31,5.02,6.44,7.5-9.37,5.73-34.99,1.47-35.4-6.84Z"/><path class="cls-1" d="M652.6,1422.47c-7.12-.73-5.92-8.62,.3-8.81,16.85,2.73,.27,24.94-12.43,19.87,6.77-2.12,14.05-3.71,16.09-11.56,1.77-3.62-1.18-4.48-3.83-5.8-.93,2.26-1.64,3.97-.14,6.3Z"/><path class="cls-1" d="M804.02,1458.51v16.66c7.83,.16,2.6-8.83,9.4-10.41-2.44,5.45-2.1,18.17-10.26,13.32-3.9-2.59-3.42-17.43,.86-19.57Z"/><path class="cls-1" d="M624.92,1390.39c-7.65,10.31-21.46-2.94-11.52-15.82,.45,8.17,.2,16.33,11.52,15.82Z"/><path class="cls-1" d="M998.85,1375.03c10.41,9.34-2.75,26.68-11.18,15.39,10.99,.59,11.04-7.32,11.18-15.39Z"/><path class="cls-1" d="M851.23,1429.77c-13.05,3.01-25.19,7.96-37.33,16.18,.53-9.91,28.68-15.98,37.33-16.18Z"/><path class="cls-1" d="M798.46,1445.36c-11.56-7.31-24.54-10.74-37-16.58,9.44,1.9,33.72,6.94,36.86,16.73,0,0,.14-.15,.14-.15Z"/><path class="cls-1" d="M827.56,14.01c2.76-2.5,8.91-16.54,12.44-13.61,1.91,4.1-5.93,11.48-7.75,15.57-2.08,1.84-3.19,.59-4.7-1.96Z"/><path class="cls-1" d="M951.36,1436.26c6.68,5.89,12.78,7.37,22.18,6.18-6.42,8.49-22.63,2.59-22.18-6.18Z"/><path class="cls-1" d="M660.97,1434.83c.4,11.6-13.73,14.6-22.51,8.96,8.34-2.82,18.56,1.9,22.51-8.96Z"/><path class="cls-1" d="M847.65,51.02c4.85,2.67,11.19,2.13,12.67,7.67-4.63,2.21-9.09-1.18-13.46-2.63-3.34-2.03-1.77-3.62,.79-5.04Z"/><path class="cls-1" d="M752.89,54.7c-4.29,2.95-7.39,5.08-10.49,7.22-.54-1.04-1.77-2.75-1.52-3.01,2.3-2.33,4.77-4.53,7.41-6.45,.43-.31,1.99,.92,4.6,2.24Z"/><path class="cls-1" d="M655.35,1403.91c-4.23-.74-8.46-1.47-13.67-2.38,4.42-4.74,8.44-1.68,12.08-1.84,.85-.04,1.8,1.92,2.7,2.97-.37,.42-.74,.84-1.11,1.25Z"/><path class="cls-1" d="M730.58,11.79c2.68,1.86,4.73,3.29,6.79,4.72-3.76,3.66-7.13,.46-10.93-1.18,1.15-.99,2.3-1.97,4.13-3.54Z"/><path class="cls-1" d="M969.66,1401.69c-4.16,.74-8.31,1.48-13.62,2.43,.66-1.84,.86-3.6,1.41-3.72,3.92-.84,7.9-2.98,11.9-.73,.1,.67,.21,1.35,.31,2.02Z"/><path class="cls-1" d="M793.2,10.31c-1.72,.54-3.83,1.54-4.06,1.21-1.68-3.33-6.34-6.98-2.29-10.29,1.64,2.34,3.27,4.67,6.35,9.08Z"/><path class="cls-1" d="M701.07,1433.25c7.16,3.52,14.32,7.03,21.48,10.55-.3,.59-.61,1.17-.91,1.76l-21.19-11.13c.21-.39,.42-.79,.63-1.18Z"/><path class="cls-1" d="M909.04,1430.59c-8.47-.49-16.94-.99-25.41-1.48,0-.15,.02-.3,.03-.45h25.45c-.02,.65-.04,1.29-.06,1.94Z"/><path class="cls-1" d="M703.54,1428.77h25.38c.02,.09,.04,.19,.06,.28-8.45,.52-16.9,1.04-25.35,1.56-.03-.61-.06-1.22-.09-1.84Z"/><path class="cls-1" d="M798.46,1447.17c-3.35,4-8.43,5.54-16.76,4.39,5.6-1.44,11.2-2.88,16.8-4.33,0,0-.04-.06-.04-.06Z"/><path class="cls-1" d="M889.81,1443.6c6.09-2.74,12.19-5.48,18.28-8.23,.2,.38,.39,.75,.59,1.13-5.98,2.99-11.97,5.97-17.95,8.96l-.92-1.86Z"/><path class="cls-1" d="M830.38,1451.68c-5.7,.45-11.39,.57-15.55-4.74,5.18,1.58,10.37,3.16,15.55,4.74Z"/><path class="cls-1" d="M870.02,1449h-9.85c0-.5-.02-1.01-.02-1.51h9.65c.08,.5,.15,1.01,.23,1.51Z"/><path class="cls-1" d="M776.02,95.58c.99-1,2.8-3.06,4.9-4.78,1.68-.51,4.16,1.28,2.62,3.46-6.09,8.05,2.41,9.42,6.85,14.66-8.3,3.03-14.31-4.07-14.37-13.34Z"/><path class="cls-1" d="M797.16,103.54c1.31-3.61,2.1-4.27,4.57-6.32,4.76,3.16,2.05,9.2-2.97,9.72-5.5,1.35-10.71-4.17-6.19-9.03,4.19-2.28,3.33,1.36,4.59,5.63Z"/><path class="cls-1" d="M823.94,99.58c.73,5.32-11.49,19.86-11.12,9.77,9.23-7.68,3.54-12.19,8.77-13.96,.89,1.59,1.78,3.18,2.34,4.19Z"/><path class="cls-1" d="M766.68,111.04c2.12-3.89,6.89-5.82,5.36,.68,.69,2.07,5.03,4.7,6.46,7.05-5.69,2.84-11.29-.51-11.83-7.74Z"/><path class="cls-1" d="M816.74,98.62c-1.88,2.61-2.99,7.77-7.55,7.3-.95-4.81,2.23-8.93,2.93-13.58,2.85,1.72,4.3,2.27,4.61,6.28Z"/><path class="cls-1" d="M793.92,47.32c-8.33-2.58-37.7-1.27-37.85-11.44,1.88-15.01,56.16-11.36,67.57-7.42,3.75,.93,8.51,2.12,8.64,7.03,.85,10.6-30.26,9.33-38.36,11.83Zm-32.6-11.62c10.7,8.06,56.7,7.89,65.7-.23-11.84-7.8-55.42-7.65-65.7,.23Z"/></svg>